#!OML:ASF E:\emotionWalksFemale\Project 1\Capture day 1\Session 1\Female1.ASF
:FULLY-SPECIFIED
:DEGREES
158
root 8.61333 13.9376 34.3083 -166.984 -2.95324 -179.057
lowerback 19.6979 3.17372 4.54545
upperback -2.02305 5.40041 1.15383
thorax -13.0656 2.17447 -2.90819
lowerneck -3.25998 -4.82875 -8.13144
upperneck -13.5073 -7.31663 2.22754
head -3.47382 -3.75764 2.29635
rclavicle -2.34566e-014 -3.18055e-014
rhumerus -34.9915 5.776 -77.8795
rradius 23.8617
rwrist 47.4408
rhand -0.59632 -54.9403
rfingers 7.12502
rthumb 25.0191 -83.3219
lclavicle -2.34566e-014 -3.18055e-014
lhumerus -55.8148 4.90624 73.533
lradius 29.8785
lwrist -36.2884
lhand 12.7279 -34.0923
lfingers 7.12502
lthumb 37.7088 -8.21449
rfemur -44.7793 2.17875 28.7629
rtibia 62.1638
rfoot -25.4304 -18.356
rtoes -5.88296
lfemur -50.5533 3.54824 -20.0014
ltibia 62.8646
lfoot -28.2483 6.12604
ltoes -35.4893
159
root 8.6334 13.8762 34.2905 -166.943 -2.63209 -178.598
lowerback 20.0733 3.36417 5.01994
upperback -2.06286 5.76245 0.867949
thorax -13.2261 2.28541 -3.62897
lowerneck -2.54975 -4.98504 -7.4402
upperneck -14.9068 -7.6891 2.4921
head -4.09974 -3.99155 2.35737
rclavicle 3.97569e-014 1.03368e-014
rhumerus -34.4962 3.21881 -77.4712
rradius 24.9486
rwrist 47.4321
rhand -1.5057 -56.4948
rfingers 7.12502
rthumb 24.1474 -84.9949
lclavicle 3.97569e-014 1.03368e-014
lhumerus -55.2173 3.80054 73.907
lradius 30.103
lwrist -35.9872
lhand 13.4112 -32.8601
lfingers 7.12502
lthumb 38.3541 -7.15812
rfemur -45.9642 2.88861 29.3259
rtibia 64.8427
rfoot -26.1013 -18.9083
rtoes -6.25999
lfemur -51.7943 3.86526 -19.4473
ltibia 65.5377
lfoot -29.0677 6.78006
ltoes -35.8901
160
root 8.64551 13.7544 34.268 -166.89 -2.35504 -178.234
lowerback 20.4738 3.44179 5.28676
upperback -2.11868 5.95153 0.801889
thorax -13.4745 2.33317 -3.94307
lowerneck -1.99007 -5.02102 -7.44516
upperneck -16.3492 -7.81915 3.01602
head -4.1958 -4.1015 2.3992
rclavicle 6.10269e-014 2.14687e-014
rhumerus -33.9599 1.79711 -77.1341
rradius 25.9958
rwrist 46.5205
rhand -3.56672 -57.3133
rfingers 7.12502
rthumb 22.17 -86.062
lclavicle 6.10269e-014 2.14687e-014
lhumerus -54.7344 3.04564 74.6482
lradius 30.3076
lwrist -35.9038
lhand 13.4996 -32.9564
lfingers 7.12502
lthumb 38.4375 -7.27752
rfemur -47.1871 3.57022 29.7755
rtibia 67.3167
rfoot -26.336 -19.5793
rtoes -6.90266
lfemur -52.9786 4.062 -19.0242
ltibia 67.922
lfoot -30.2293 7.25194
ltoes -35.2307
161
root 8.64464 13.5619 34.2404 -166.8 -2.25274 -178.09
lowerback 20.8232 3.41775 5.4505
upperback -2.20555 5.9864 0.77376
thorax -13.7584 2.31716 -4.11039
lowerneck -1.92471 -4.93991 -8.09775
upperneck -16.7339 -7.65962 3.81428
head -4.27277 -4.03388 2.75807
rclavicle -1.15295e-014 3.18055e-015
rhumerus -33.4041 0.848239 -76.8003
rradius 26.8892
rwrist 44.886
rhand -6.58945 -57.5316
rfingers 7.12502
rthumb 19.2656 -86.5973
lclavicle -1.15295e-014 3.18055e-015
lhumerus -54.2515 2.23345 75.6628
lradius 30.5438
lwrist -35.6167
lhand 14.2562 -33.9011
lfingers 7.12502
lthumb 39.1511 -8.4245
rfemur -48.6439 4.09861 29.9864
rtibia 69.7339
rfoot -26.6547 -19.7844
rtoes -5.64809
lfemur -54.2598 3.90686 -18.8327
ltibia 70.0393
lfoot -31.2933 7.39314
ltoes -33.899
162
root 8.65143 13.4874 34.2214 -166.73 -2.29776 -177.857
lowerback 21.4071 2.96683 5.13193
upperback -1.8161 5.27707 0.569583
thorax -13.7147 2.00753 -3.972
lowerneck -4.89846 -4.32029 -6.34266
upperneck -15.798 -6.78552 3.43687
head -4.02975 -3.73602 2.41841
rclavicle 3.85642e-014 5.56597e-015
rhumerus -31.1234 0.523024 -77.9188
rradius 27.4096
rwrist 42.9821
rhand -8.81191 -57.3576
rfingers 7.12502
rthumb 17.1275 -86.6227
lclavicle 3.85642e-014 5.56597e-015
lhumerus -52.7216 1.74913 76.0782
lradius 31.0852
lwrist -34.1554
lhand 15.4917 -33.5039
lfingers 7.12502
lthumb 40.3143 -8.37338
rfemur -49.5731 4.08594 30.3545
rtibia 71.6351
rfoot -27.0185 -19.6412
rtoes -4.56988
lfemur -54.9114 3.67412 -18.4977
ltibia 71.5437
lfoot -32.3161 7.41058
ltoes -32.8773
163
root 8.66044 13.4313 34.2015 -166.691 -2.274 -177.599
lowerback 21.6916 2.96665 5.47801
upperback -1.99012 5.39214 0.500819
thorax -14.0372 2.01139 -4.31078
lowerneck -4.54743 -4.34836 -6.35107
upperneck -16.075 -6.83875 3.58933
head -4.18845 -3.7668 2.49894
rclavicle 2.50469e-014 -3.18055e-015
rhumerus -30.8367 0.341926 -78.2513
rradius 28.0798
rwrist 39.8971
rhand -10.5536 -57.0039
rfingers 7.12502
rthumb 15.4505 -86.4064
lclavicle 2.50469e-014 -3.18055e-015
lhumerus -52.1248 0.0915996 77.4091
lradius 31.3457
lwrist -33.0897
lhand 16.3951 -33.2371
lfingers 7.12502
lthumb 41.1632 -8.37282
rfemur -50.3306 4.33203 30.6435
rtibia 73.1888
rfoot -27.1688 -19.6323
rtoes -4.56152
lfemur -55.3744 3.4962 -18.1211
ltibia 72.7951
lfoot -33.1026 7.44168
ltoes -30.9945
164
root 8.66039 13.3204 34.1742 -166.732 -2.24646 -177.447
lowerback 21.9998 2.87252 5.48318
upperback -1.88982 5.27641 0.515704
thorax -14.1107 1.95168 -4.27843
lowerneck -5.18373 -4.29586 -5.78388
upperneck -16.1603 -6.86307 3.151
head -4.13114 -3.82119 2.22972
rclavicle 3.18055e-014 7.95139e-015
rhumerus -29.734 0.957908 -78.8667
rradius 28.5863
rwrist 36.5264
rhand -12.3672 -56.7684
rfingers 7.12502
rthumb 13.7032 -86.2973
lclavicle 3.18055e-014 7.95139e-015
lhumerus -50.7732 -0.167476 77.8851
lradius 30.9928
lwrist -32.8195
lhand 16.3397 -34.3991
lfingers 7.12502
lthumb 41.1112 -9.51818
rfemur -51.2123 4.35688 30.8372
rtibia 74.7727
rfoot -27.3607 -19.2192
rtoes -5.12723
lfemur -56.0223 3.32822 -17.9016
ltibia 74.2007
lfoot -33.6045 7.58855
ltoes -28.8431
165
root 8.66438 13.2765 34.1515 -166.818 -2.31389 -177.199
lowerback 22.2373 2.68277 5.64083
upperback -1.8313 5.10184 0.788472
thorax -14.2122 1.86125 -4.01436
lowerneck -5.20533 -4.2117 -6.13231
upperneck -16.4451 -6.83551 2.95908
head -4.23367 -3.80183 2.2382
rclavicle -4.01545e-014 5.08889e-014
rhumerus -28.6642 2.09736 -79.033
rradius 29.1423
rwrist 34.5909
rhand -12.9336 -55.9725
rfingers 7.12502
rthumb 13.1572 -85.5373
lclavicle -4.01545e-014 5.08889e-014
lhumerus -49.9044 0.184275 78.4997
lradius 31.0565
lwrist -32.2957
lhand 15.2158 -34.9193
lfingers 7.12502
lthumb 40.0547 -9.70983
rfemur -51.4316 4.25381 31.1075
rtibia 75.7996
rfoot -27.8848 -18.6248
rtoes -5.47604
lfemur -56.3496 3.25812 -17.5738
ltibia 75.2557
lfoot -34.3845 7.74324
ltoes -29.1197
166
root 8.66242 13.1721 34.129 -166.689 -2.36463 -176.986
lowerback 22.4107 2.26785 5.59404
upperback -1.9171 4.61338 1.32765
thorax -14.5193 1.64671 -3.22678
lowerneck -5.41564 -3.85166 -7.56861
upperneck -16.354 -6.31293 3.22944
head -4.15066 -3.48939 2.5699
rclavicle -1.25234e-014 1.11319e-014
rhumerus -27.5708 4.54573 -79.1743
rradius 29.7108
rwrist 33.1093
rhand -11.8146 -55.2125
rfingers 7.12502
rthumb 14.2356 -84.7046
lclavicle -1.25234e-014 1.11319e-014
lhumerus -49.5812 1.52036 79.1862
lradius 31.6358
lwrist -31.2653
lhand 14.2709 -34.5971
lfingers 7.12502
lthumb 39.1649 -9.12453
rfemur -52.0872 4.20452 31.3604
rtibia 77.0054
rfoot -28.6807 -18.3556
rtoes -5.6085
lfemur -57.2992 3.21535 -17.3447
ltibia 76.6447
lfoot -34.9325 7.6422
ltoes -28.332
167
root 8.65983 13.0997 34.1085 -166.407 -2.29412 -176.969
lowerback 22.4202 2.19851 5.58359
upperback -1.99804 4.51649 1.21083
thorax -14.6205 1.59575 -3.32636
lowerneck -5.92558 -3.73339 -7.23435
upperneck -16.1351 -6.12184 3.23029
head -3.99307 -3.42053 2.48153
rclavicle -3.1408e-014 8.74653e-015
rhumerus -26.6084 5.16369 -79.7687
rradius 30.1987
rwrist 31.6643
rhand -11.325 -54.6326
rfingers 7.12502
rthumb 14.7074 -84.0909
lclavicle -3.1408e-014 8.74653e-015
lhumerus -48.2751 1.21484 79.4325
lradius 31.9922
lwrist -30.0766
lhand 13.6815 -34.5695
lfingers 7.12502
lthumb 38.6092 -8.93867
rfemur -52.8418 3.80354 31.5326
rtibia 77.8378
rfoot -28.8946 -18.5412
rtoes -6.8906
lfemur -58.1674 3.29272 -17.3993
ltibia 77.7889
lfoot -35.316 7.5114
ltoes -27.2736
168
root 8.64979 13.039 34.0891 -166.328 -2.1808 -176.833
lowerback 22.5334 2.06204 5.69657
upperback -2.01825 4.37122 1.18206
thorax -14.7135 1.51438 -3.38204
lowerneck -5.86393 -3.56297 -6.7265
upperneck -16.4586 -5.99699 2.94344
head -4.14983 -3.39063 2.31031
rclavicle -8.94531e-015 -8.74653e-015
rhumerus -25.5713 6.12504 -80.3056
rradius 30.5638
rwrist 30.8844
rhand -11.6626 -53.8939
rfingers 7.12502
rthumb 14.3822 -83.3756
lclavicle -8.94531e-015 -8.74653e-015
lhumerus -46.9501 1.14951 79.5761
lradius 32.2682
lwrist -29.3684
lhand 12.1976 -34.4285
lfingers 7.12502
lthumb 37.2076 -8.41802
rfemur -53.1254 3.46498 31.8002
rtibia 78.4715
rfoot -29.2626 -18.7778
rtoes -8.26552
lfemur -58.6586 3.43965 -17.3253
ltibia 78.8401
lfoot -35.721 7.50034
ltoes -26.5352
169
root 8.66428 12.9842 34.0518 -166.39 -1.8925 -176.378
lowerback 22.1501 2.16693 5.66937
upperback -1.89155 4.48114 1.36518
thorax -14.3459 1.59098 -3.16686
lowerneck -5.43365 -3.50992 -6.23244
upperneck -16.9874 -6.09625 2.42755
head -4.44924 -3.46028 2.08713
rclavicle -3.51849e-014 -3.65764e-014
rhumerus -24.6091 6.93945 -80.5367
rradius 30.8345
rwrist 31.0445
rhand -11.4322 -53.5687
rfingers 7.12502
rthumb 14.6041 -83.0345
lclavicle -3.51849e-014 -3.65764e-014
lhumerus -45.4943 1.0384 79.8552
lradius 32.3824
lwrist -28.633
lhand 9.96843 -34.0426
lfingers 7.12502
lthumb 35.0964 -7.50912
rfemur -52.9471 3.62235 32.4697
rtibia 78.78
rfoot -30.0605 -18.9241
rtoes -8.36268
lfemur -58.9088 4.0153 -16.7902
ltibia 79.7214
lfoot -36.1899 7.12372
ltoes -25.2371
170
root 8.66081 12.9503 34.0276 -166.219 -1.68482 -176.417
lowerback 21.5663 2.22936 5.57214
upperback -1.71507 4.47822 1.33431
thorax -13.8001 1.6245 -3.10743
lowerneck -5.67418 -3.46683 -6.08153
upperneck -17.0334 -6.06831 2.33567
head -4.42922 -3.46436 2.02277
rclavicle -1.45113e-014 1.90833e-014
rhumerus -23.3126 7.55169 -80.6174
rradius 30.9385
rwrist 31.7283
rhand -10.5018 -53.588
rfingers 7.12502
rthumb 15.5004 -82.9867
lclavicle -1.45113e-014 1.90833e-014
lhumerus -43.5849 1.2304 80.0037
lradius 32.159
lwrist -27.6702
lhand 7.4436 -34.0134
lfingers 7.12502
lthumb 32.6978 -6.94988
rfemur -53.0812 3.40108 32.5753
rtibia 79.0372
rfoot -30.824 -18.9756
rtoes -8.04926
lfemur -59.2143 4.16087 -16.8415
ltibia 80.3521
lfoot -36.7168 6.89449
ltoes -23.7563
171
root 8.66731 12.918 33.9991 -166.299 -1.4547 -176.139
lowerback 21.2892 2.32579 5.68313
upperback -1.52844 4.59946 1.40065
thorax -13.4061 1.69064 -3.10989
lowerneck -5.82985 -3.44164 -6.16012
upperneck -17.07 -6.01 2.5525
head -4.40804 -3.44624 2.10582
rclavicle -2.04748e-014 -3.26007e-014
rhumerus -22.06 8.07527 -80.6393
rradius 31.0014
rwrist 32.4922
rhand -9.53852 -53.5097
rfingers 7.12502
rthumb 16.428 -82.8341
lclavicle -2.04748e-014 -3.26007e-014
lhumerus -41.8163 1.50466 80.0105
lradius 32.01
lwrist -27.3443
lhand 5.07776 -34.1012
lfingers 7.12502
lthumb 30.4441 -6.59523
rfemur -52.8952 3.4697 32.9769
rtibia 79.1594
rfoot -31.5462 -18.7045
rtoes -5.73949
lfemur -59.2388 4.44397 -16.4904
ltibia 80.8967
lfoot -37.1776 6.71233
ltoes -22.93
